<?xml version="1.0" encoding="utf-8"?>
<!-- Generator: Adobe Illustrator 21.0.0, SVG Export Plug-In . SVG Version: 6.00 Build 0)  -->
<svg version="1.1" id="Layer_1" xmlns="http://www.w3.org/2000/svg" xmlns:xlink="http://www.w3.org/1999/xlink" x="0px" y="0px"
	 viewBox="0 0 431 768" style="enable-background:new 0 0 431 768;" xml:space="preserve">
<style type="text/css">
	.st0{fill:url(#SVGID_1_);}
	.st1{fill:url(#SVGID_2_);}
	.st2{fill:url(#SVGID_3_);}
	.st3{fill:#A29C98;}
	.st4{fill:url(#SVGID_4_);}
	.st5{fill:url(#SVGID_5_);}
	.st6{fill:url(#SVGID_6_);}
	.st7{fill:url(#SVGID_7_);}
</style>
<g>
	<linearGradient id="SVGID_1_" gradientUnits="userSpaceOnUse" x1="261.0564" y1="513.7299" x2="337.4687" y2="-97.568">
		<stop  offset="0" style="stop-color:#FEB54B"/>
		<stop  offset="0.5071" style="stop-color:#F64128"/>
		<stop  offset="1" style="stop-color:#D60B0D"/>
	</linearGradient>
	<path class="st0" d="M341.5,112.7C340.8,46.4,272.4,8,272.4,8c44.5,50,39.8,71,38.3,97.1c-2.2,36.7,0.2,215.8-3.8,255.2
		c-5.5,54.4-26.1,72.7-35,87.1l4.3,2.3l37.1-58.8c1.4-2,25-37.2,24-82.3C336.7,283.5,341.8,145.5,341.5,112.7z"/>
	<linearGradient id="SVGID_2_" gradientUnits="userSpaceOnUse" x1="193.9526" y1="424.5791" x2="234.7372" y2="-5.227">
		<stop  offset="0" style="stop-color:#142678"/>
		<stop  offset="0.6243" style="stop-color:#37997F"/>
		<stop  offset="1" style="stop-color:#A1CA19"/>
	</linearGradient>
	<path class="st1" d="M282.4,492.9c-17.4,17.8-48,15.3-67.3-2.6L106.3,389.1c0,0,33.2-36.9,30.8-92.2S136,105.3,136,105.3
		S129.5,58.2,173.7,8c0,0-68.2,38.8-68.5,105.1c-0.3,66.3,1.8,235.6,1.8,235.6s-3.3,50.6-25.3,66.8l97.2,91.5
		c34.5,32.5,91.3,22.1,114.3-19.4c2.7-4.9,4.6-8.4,5.3-9.8l10.8-17.7l-7.3-7.5C297.2,471.9,290.4,484.7,282.4,492.9z"/>
	<linearGradient id="SVGID_3_" gradientUnits="userSpaceOnUse" x1="15.6164" y1="463.149" x2="276.6625" y2="463.149">
		<stop  offset="0" style="stop-color:#F77FBD"/>
		<stop  offset="0.5216" style="stop-color:#F1218B"/>
		<stop  offset="1" style="stop-color:#650044"/>
	</linearGradient>
	<path class="st2" d="M276.5,636.8c-0.6-6.8-5.7-16.8-13-23.7c-15.5-14.6-76.4-72.1-76.4-72.1l8.6-18.9l-2.6-6l-46.4,87.6
		c0,0-9.9,34.8,18.5,46.8s61.8,33.5,61.8,33.5l22.3-30.1l-79-42.9c0,0-17.2-12.9-10.3-26.6s12-21.5,12-21.5s-0.9,10.3,11.2,20.6
		c12,10.3,61,56.7,61,56.7s18,20.6,12,30.1c-3.2,5.1-22.8,41.6-34.6,55.3c-11.9,13.7-51.7,18.7-72.6-0.7l-60.7-56.5l-48.1-44.7
		c0,0,33.2-36.9,30.8-92.2s-1.1-268.9-1.1-268.9s-6.5-47.1,37.7-97.3c0,0-68.2,38.8-68.5,105.1c-0.3,66.3,1.8,312.9,1.8,312.9
		s-3.3,50.6-25.3,66.8l97.2,91.5c22.8,21.4,54.8,24.9,80.6,13c0,0,16.1-6.5,33-26.4c13.7-16.2,45.4-71.9,45.4-71.9
		C275.4,650.3,277.1,643.5,276.5,636.8z"/>
	<path class="st3" d="M261.8,252.9c0,0-3.2,72.7-21.4,80.2c0,0,16.5-29-3.4-68.1c0,0-12.5,8.5-20-10.2c-7.5-18.7,14.2-32.9,24.8-4.5
		c10.6,28.4,11.5,51.1,5.1,70.7c0,0,10.7-44.5,8.2-90.5c-1.8-19.6,21.3-34.9,38.3-18.1l-5.1,1.5c0,0-7.9-8.2-18.8-2.6
		c-10.9,5.6-0.6,18.8-0.6,18.8s8.8,8.8,7.7,16.2C276.1,250.4,268.7,261.6,261.8,252.9"/>
	<linearGradient id="SVGID_4_" gradientUnits="userSpaceOnUse" x1="371.0601" y1="132.9482" x2="371.0601" y2="578.9564">
		<stop  offset="0" style="stop-color:#C08EC4"/>
		<stop  offset="0.5" style="stop-color:#8A3F9B"/>
		<stop  offset="1" style="stop-color:#0D0F65"/>
	</linearGradient>
	<path class="st4" d="M405.9,269.8c-0.7-66.3-69.1-104.7-69.1-104.7c44.5,50,39.8,71,38.3,97.1c-2.2,36.7,0.2,373-3.8,412.4
		c-5.5,54.4-26.1,72.7-35,87.1l4.3,2.3l37.1-58.8c1.4-2,25-37.2,24-82.3C401.1,597.9,406.2,302.6,405.9,269.8z"/>
	<linearGradient id="SVGID_5_" gradientUnits="userSpaceOnUse" x1="293.0878" y1="145.1689" x2="165.8846" y2="83.7605">
		<stop  offset="0" style="stop-color:#142678"/>
		<stop  offset="0.6243" style="stop-color:#37997F"/>
		<stop  offset="1" style="stop-color:#A1CA19"/>
	</linearGradient>
	<path class="st5" d="M265.5,70.8c-0.2-1.7,0.1-2.8,1-3.1c0.9-0.3,1.6,0.1,1.9,1.1c4,8.4,5.3,16.5,3.9,24.4
		c-1.4,7.9-4.3,15.1-8.7,21.7c-4.5,6.6-9.7,12.4-15.9,17.4c-6.1,5.1-12,8.7-17.5,10.7c-5.8,2.3-10.2,5.2-13.3,8.9
		c-3.1,3.6-5.1,8.9-5.9,15.8c-0.1,1.7-0.5,2.5-1.2,2.4c-0.7,0-1.2-1-1.5-3c-0.8-3.9-1-8.7-0.8-14.4c0.2-5.6,2.3-10.9,6.3-15.8
		c-6.6-1.3-12.4-3.9-17.5-7.8c-5.1-3.9-9.4-8.4-13-13.6c-3.6-5.2-6.5-10.7-8.5-16.6c-2-5.9-3.2-11.6-3.4-17.2
		c-0.1-1.2,0.1-1.9,0.7-2.1c0.6-0.3,1.5-0.4,2.7-0.6c15.4-3,30.4-3.3,45-0.8c14.6,2.4,27.5,8.9,38.6,19.5c-0.4,0.3-0.6,0.4-0.4,0.5
		c0.2,0,0,0.2-0.4,0.5c-5.9-4.9-12-8.8-18.4-11.6c-6.5-2.8-13.1-4.6-20-5.4c-6.9-0.8-13.7-0.7-20.5,0.2c-6.8,0.9-13.5,2.4-20,4.6
		c-0.8,0.2-1.4,0.5-1.9,0.8c-0.4,0.3-0.5,1.1-0.2,2.5c0.5,4.4,1.9,8.9,4.3,13.5c2.4,4.6,5,8,7.8,10.2c7.6,6.6,16,9.8,25.2,9.5
		c9.3-0.3,17.9-3,25.8-7.9c7.9-5,14.4-11.5,19.5-19.4C264.4,87.6,266.5,79.3,265.5,70.8"/>
	<linearGradient id="SVGID_6_" gradientUnits="userSpaceOnUse" x1="93.0172" y1="533.7446" x2="146.7022" y2="533.7446">
		<stop  offset="0" style="stop-color:#D62B8F"/>
		<stop  offset="1" style="stop-color:#47104E"/>
	</linearGradient>
	<path class="st6" d="M117.4,568.5c0,0,14.2-9.4,24.5-24c10.3-14.6,0.9-24,0.9-24s-14.6-15.4-18.9-20.6c-3.7-4.5-13.4,7.4-20.9,15.6
		c-1.1,1.2-2.1,2.3-3.1,3.3c-0.5,0.5-1,0.9-1.4,1.4c-1.8,1.7-3.4,3-4.4,4.4c-1,1.3-1.4,2.7-0.8,4.5c0.3,0.9,0.8,1.9,1.6,3.1
		c2,2.9,5.7,6.8,11.9,12.4C123.3,559.7,117.4,568.5,117.4,568.5z"/>
	<path class="st3" d="M285.3,764c0,0,35.9-44,45.2-57.1c9.3-13.1,0.8-21.6,0.8-21.6s-13.1-13.9-17-18.5c-3.4-4-12,6.6-18.8,14
		c-1,1.1-1.9,2.1-2.8,2.9c-0.4,0.4-0.9,0.8-1.3,1.2c-1.6,1.5-3.1,2.7-4,3.9c-0.9,1.2-1.2,2.4-0.7,4c0.3,0.8,0.7,1.7,1.4,2.7
		c1.8,2.6,5.2,6.1,10.7,11.2C313.7,720.6,285.3,764,285.3,764z"/>
	<linearGradient id="SVGID_7_" gradientUnits="userSpaceOnUse" x1="364.1398" y1="511.4822" x2="-26.2425" y2="7.0556">
		<stop  offset="0.1856" style="stop-color:#579951"/>
		<stop  offset="0.6015" style="stop-color:#A1CA19"/>
	</linearGradient>
	<path class="st7" d="M262.2,393.5c-29-23.1-65.7-60.2-81.4-105.5c-15.7-45.3,35.1-85,35.1-85l-3.6-4.5
		c-38.4,47.4-74.2,87.5-56.2,132c18,44.5,72.6,91.9,98.1,110.4c25.4,18.6,80.8,66.3,87.1,89.2c5,18.2-9.6,38-15.8,48.2l4.3,3.9
		c3.7-5.2,11.2-17.9,26.3-47.2C387.9,473.3,291.2,416.6,262.2,393.5z"/>
</g>
</svg>
